<mxfile host="app.diagrams.net" modified="2021-05-04T10:53:23.610Z" agent="5.0 (Windows NT 10.0; Win64; x64) AppleWebKit/537.36 (KHTML, like Gecko) Chrome/89.0.4389.128 Safari/537.36 OPR/75.0.3969.259" etag="PKPhPAuIuqI6uXmTPgX9" version="14.6.9" type="github">
  <diagram id="h7-cDQ5xOd-VwKGRXVBt" name="Page-1">
    <mxGraphModel dx="1138" dy="627" grid="1" gridSize="10" guides="1" tooltips="1" connect="1" arrows="1" fold="1" page="1" pageScale="1" pageWidth="850" pageHeight="1100" math="0" shadow="0">
      <root>
        <mxCell id="0" />
        <mxCell id="1" parent="0" />
        <mxCell id="DWBVN1jV-IiaQYZfvSmQ-4" style="edgeStyle=orthogonalEdgeStyle;rounded=0;orthogonalLoop=1;jettySize=auto;html=1;" edge="1" parent="1" source="DWBVN1jV-IiaQYZfvSmQ-1" target="DWBVN1jV-IiaQYZfvSmQ-3">
          <mxGeometry relative="1" as="geometry" />
        </mxCell>
        <mxCell id="DWBVN1jV-IiaQYZfvSmQ-1" value="Web Server&amp;nbsp;" style="ellipse;shape=cloud;whiteSpace=wrap;html=1;" vertex="1" parent="1">
          <mxGeometry x="50" y="270" width="120" height="80" as="geometry" />
        </mxCell>
        <mxCell id="DWBVN1jV-IiaQYZfvSmQ-6" style="edgeStyle=orthogonalEdgeStyle;rounded=0;orthogonalLoop=1;jettySize=auto;html=1;" edge="1" parent="1" source="DWBVN1jV-IiaQYZfvSmQ-3" target="DWBVN1jV-IiaQYZfvSmQ-5">
          <mxGeometry relative="1" as="geometry" />
        </mxCell>
        <mxCell id="DWBVN1jV-IiaQYZfvSmQ-9" value="Write" style="edgeLabel;html=1;align=center;verticalAlign=middle;resizable=0;points=[];" vertex="1" connectable="0" parent="DWBVN1jV-IiaQYZfvSmQ-6">
          <mxGeometry x="-0.15" y="1" relative="1" as="geometry">
            <mxPoint as="offset" />
          </mxGeometry>
        </mxCell>
        <mxCell id="DWBVN1jV-IiaQYZfvSmQ-8" style="edgeStyle=orthogonalEdgeStyle;rounded=0;orthogonalLoop=1;jettySize=auto;html=1;entryX=0.5;entryY=0;entryDx=0;entryDy=0;" edge="1" parent="1" source="DWBVN1jV-IiaQYZfvSmQ-3" target="DWBVN1jV-IiaQYZfvSmQ-7">
          <mxGeometry relative="1" as="geometry" />
        </mxCell>
        <mxCell id="DWBVN1jV-IiaQYZfvSmQ-24" style="edgeStyle=orthogonalEdgeStyle;rounded=0;orthogonalLoop=1;jettySize=auto;html=1;entryX=0;entryY=0.5;entryDx=0;entryDy=0;" edge="1" parent="1" source="DWBVN1jV-IiaQYZfvSmQ-3" target="DWBVN1jV-IiaQYZfvSmQ-21">
          <mxGeometry relative="1" as="geometry" />
        </mxCell>
        <mxCell id="DWBVN1jV-IiaQYZfvSmQ-25" value="Read" style="edgeLabel;html=1;align=center;verticalAlign=middle;resizable=0;points=[];" vertex="1" connectable="0" parent="DWBVN1jV-IiaQYZfvSmQ-24">
          <mxGeometry x="0.1582" y="-1" relative="1" as="geometry">
            <mxPoint as="offset" />
          </mxGeometry>
        </mxCell>
        <mxCell id="DWBVN1jV-IiaQYZfvSmQ-3" value="Backend Service&amp;nbsp;" style="rounded=1;whiteSpace=wrap;html=1;" vertex="1" parent="1">
          <mxGeometry x="290" y="280" width="120" height="60" as="geometry" />
        </mxCell>
        <mxCell id="DWBVN1jV-IiaQYZfvSmQ-16" style="edgeStyle=orthogonalEdgeStyle;rounded=0;orthogonalLoop=1;jettySize=auto;html=1;entryX=1.008;entryY=0.585;entryDx=0;entryDy=0;entryPerimeter=0;exitX=1;exitY=0.5;exitDx=0;exitDy=0;exitPerimeter=0;" edge="1" parent="1" source="DWBVN1jV-IiaQYZfvSmQ-5" target="DWBVN1jV-IiaQYZfvSmQ-15">
          <mxGeometry relative="1" as="geometry" />
        </mxCell>
        <mxCell id="DWBVN1jV-IiaQYZfvSmQ-17" value="Replicate" style="edgeLabel;html=1;align=center;verticalAlign=middle;resizable=0;points=[];" vertex="1" connectable="0" parent="DWBVN1jV-IiaQYZfvSmQ-16">
          <mxGeometry x="-0.0789" y="1" relative="1" as="geometry">
            <mxPoint as="offset" />
          </mxGeometry>
        </mxCell>
        <mxCell id="DWBVN1jV-IiaQYZfvSmQ-20" style="edgeStyle=orthogonalEdgeStyle;rounded=0;orthogonalLoop=1;jettySize=auto;html=1;entryX=1;entryY=0.5;entryDx=0;entryDy=0;entryPerimeter=0;" edge="1" parent="1" source="DWBVN1jV-IiaQYZfvSmQ-5" target="DWBVN1jV-IiaQYZfvSmQ-19">
          <mxGeometry relative="1" as="geometry">
            <Array as="points">
              <mxPoint x="650" y="310" />
              <mxPoint x="650" y="540" />
            </Array>
          </mxGeometry>
        </mxCell>
        <mxCell id="DWBVN1jV-IiaQYZfvSmQ-5" value="SQL DB" style="shape=cylinder3;whiteSpace=wrap;html=1;boundedLbl=1;backgroundOutline=1;size=15;" vertex="1" parent="1">
          <mxGeometry x="570" y="270" width="60" height="80" as="geometry" />
        </mxCell>
        <mxCell id="DWBVN1jV-IiaQYZfvSmQ-7" value="3rd Party Payment" style="rounded=1;whiteSpace=wrap;html=1;" vertex="1" parent="1">
          <mxGeometry x="290" y="410" width="120" height="60" as="geometry" />
        </mxCell>
        <mxCell id="DWBVN1jV-IiaQYZfvSmQ-15" value="SQL Read Replica" style="shape=cylinder3;whiteSpace=wrap;html=1;boundedLbl=1;backgroundOutline=1;size=15;" vertex="1" parent="1">
          <mxGeometry x="570" y="380" width="60" height="80" as="geometry" />
        </mxCell>
        <mxCell id="DWBVN1jV-IiaQYZfvSmQ-19" value="SQL Read Replica" style="shape=cylinder3;whiteSpace=wrap;html=1;boundedLbl=1;backgroundOutline=1;size=15;" vertex="1" parent="1">
          <mxGeometry x="570" y="500" width="60" height="80" as="geometry" />
        </mxCell>
        <mxCell id="DWBVN1jV-IiaQYZfvSmQ-22" style="edgeStyle=orthogonalEdgeStyle;rounded=0;orthogonalLoop=1;jettySize=auto;html=1;entryX=0;entryY=0;entryDx=0;entryDy=52.5;entryPerimeter=0;" edge="1" parent="1" source="DWBVN1jV-IiaQYZfvSmQ-21" target="DWBVN1jV-IiaQYZfvSmQ-15">
          <mxGeometry relative="1" as="geometry" />
        </mxCell>
        <mxCell id="DWBVN1jV-IiaQYZfvSmQ-23" style="edgeStyle=orthogonalEdgeStyle;rounded=0;orthogonalLoop=1;jettySize=auto;html=1;" edge="1" parent="1" source="DWBVN1jV-IiaQYZfvSmQ-21" target="DWBVN1jV-IiaQYZfvSmQ-19">
          <mxGeometry relative="1" as="geometry" />
        </mxCell>
        <mxCell id="DWBVN1jV-IiaQYZfvSmQ-21" value="LB" style="rhombus;whiteSpace=wrap;html=1;" vertex="1" parent="1">
          <mxGeometry x="460" y="470" width="50" height="40" as="geometry" />
        </mxCell>
      </root>
    </mxGraphModel>
  </diagram>
</mxfile>
